<svg width="73" height="73" viewBox="0 0 73 73" fill="none" xmlns="http://www.w3.org/2000/svg">
<path d="M19.5033 47.3467H18.9688V42.0827H20.5172C20.7589 42.0807 21 42.1054 21.2362 42.1563C21.4406 42.1998 21.6346 42.2824 21.8076 42.3995C21.9653 42.5109 22.0922 42.6604 22.1763 42.8341C22.2711 43.0394 22.3165 43.2639 22.3091 43.4898C22.314 43.6631 22.2838 43.8356 22.2205 43.997C22.1571 44.1584 22.0619 44.3054 21.9404 44.4292C21.8178 44.5482 21.674 44.6432 21.5164 44.7091C21.3458 44.7798 21.1656 44.8246 20.9818 44.8418L22.5229 47.3467H21.8556L20.3808 44.886H19.5033V47.3467ZM19.5033 44.4255H20.4324C20.7802 44.4457 21.1262 44.3637 21.4279 44.1897C21.5428 44.1133 21.6356 44.0081 21.697 43.8847C21.7585 43.7612 21.7864 43.6238 21.7781 43.4862C21.7832 43.3343 21.7502 43.1837 21.6823 43.0478C21.6188 42.9295 21.5262 42.8293 21.4131 42.7568C21.2854 42.6776 21.1442 42.6226 20.9965 42.5947C20.8181 42.5589 20.6365 42.5416 20.4546 42.5431H19.5033V44.4255Z" fill="#6D6E71"/>
<path d="M23.2271 47.3467H22.6372L24.912 42.0827H25.4392L27.6993 47.3467H27.0983L26.5195 45.9653H23.7949L23.2271 47.3467ZM24.0013 45.4717H26.3241L25.1627 42.6757L24.0013 45.4717Z" fill="#6D6E71"/>
<path d="M28.3042 42.0827H28.8388V44.3629H31.7072V42.0827H32.2418V47.3467H31.7072V44.8565H28.8425V47.3467H28.3042V42.0827Z" fill="#6D6E71"/>
<path d="M37.2192 46.5657V42.0827H37.7538V47.3467H37.0828L34.019 42.8194V47.3467H33.4844V42.0827H34.1554L37.2192 46.5657Z" fill="#6D6E71"/>
<path d="M39.538 46.8715H42.3585V47.3467H39.0034V42.0827H42.27V42.5579H39.538V44.3629H42.0893V44.8381H39.538V46.8715Z" fill="#6D6E71"/>
<path d="M45.8498 46.4405L47.6121 42.0827H48.4306V47.3467H47.896V42.7752L45.9899 47.3467H45.7171L43.811 42.7752V47.3467H43.2764V42.0827H44.0949L45.8498 46.4405Z" fill="#6D6E71"/>
<path d="M49.6361 47.3467H49.0352L51.31 42.0827H51.8298L54.0899 47.3467H53.4963L52.9174 45.9653H50.1928L49.6361 47.3467ZM50.4104 45.4717H52.722L51.5607 42.6757L50.4104 45.4717Z" fill="#6D6E71"/>
<path d="M23.5961 53.4911C23.502 53.6255 23.3932 53.7491 23.2717 53.8595C23.1394 53.9821 22.992 54.0874 22.833 54.1726C22.6591 54.2656 22.4747 54.3374 22.2836 54.3862C22.0679 54.4403 21.8461 54.4663 21.6237 54.4636C21.245 54.4686 20.869 54.3984 20.5176 54.2573C20.191 54.1264 19.8946 53.9301 19.6467 53.6805C19.3988 53.4309 19.2046 53.1333 19.076 52.8059C18.9376 52.4541 18.8687 52.0788 18.8733 51.7008C18.8699 51.3222 18.9414 50.9467 19.0834 50.5957C19.214 50.269 19.4094 49.972 19.6578 49.7226C19.9061 49.4732 20.2023 49.2765 20.5287 49.1443C20.8797 49.0019 21.2559 48.9318 21.6347 48.938C22.0156 48.937 22.3925 49.016 22.7408 49.1701C22.8991 49.2399 23.0488 49.3276 23.1869 49.4317C23.3162 49.5288 23.4294 49.6457 23.5224 49.7779L23.0763 50.1058C23.0135 50.0121 22.9392 49.9267 22.8551 49.8516C22.7573 49.7628 22.6482 49.6872 22.5306 49.6269C22.4013 49.5611 22.2654 49.5092 22.1251 49.4722C21.9711 49.4318 21.8124 49.412 21.6532 49.4132C21.3374 49.4075 21.0242 49.4704 20.7351 49.5974C20.4704 49.714 20.233 49.8846 20.0383 50.0984C19.8474 50.3133 19.7008 50.5636 19.6069 50.8351C19.5078 51.1155 19.4579 51.4108 19.4595 51.7082C19.4578 52.0058 19.509 52.3014 19.6106 52.5812C19.7062 52.8528 19.854 53.103 20.0457 53.318C20.238 53.5311 20.4729 53.7018 20.7351 53.8189C21.0218 53.9455 21.3325 54.0083 21.6458 54.0031C21.9433 54.0047 22.2376 53.9418 22.5085 53.8189C22.7884 53.6897 23.0262 53.4842 23.1943 53.2259L23.5961 53.4911Z" fill="#F7941D"/>
<path d="M29.9706 51.7119C29.9749 52.0902 29.9047 52.4657 29.7641 52.817C29.6331 53.144 29.4371 53.4412 29.1881 53.6906C28.9391 53.9401 28.6422 54.1366 28.3152 54.2684C27.6155 54.5462 26.8359 54.5462 26.1362 54.2684C25.8123 54.1354 25.5184 53.9387 25.2721 53.69C25.0257 53.4413 24.8319 53.1457 24.702 52.8207C24.4255 52.1098 24.4255 51.3213 24.702 50.6104C24.8327 50.2837 25.0281 49.9868 25.2764 49.7374C25.5248 49.488 25.821 49.2913 26.1473 49.1591C26.847 48.8812 27.6266 48.8812 28.3262 49.1591C28.6532 49.2908 28.9502 49.4874 29.1992 49.7368C29.4482 49.9862 29.6441 50.2834 29.7752 50.6104C29.9115 50.9614 29.9779 51.3355 29.9706 51.7119ZM29.4065 51.7119C29.4085 51.4133 29.3586 51.1167 29.259 50.8351C29.1651 50.5636 29.0185 50.3133 28.8277 50.0984C28.6351 49.8855 28.4003 49.7149 28.1382 49.5974C27.8502 49.4752 27.5405 49.4123 27.2276 49.4123C26.9146 49.4123 26.6049 49.4752 26.3169 49.5974C26.0548 49.7148 25.82 49.8854 25.6275 50.0984C25.4366 50.3133 25.29 50.5636 25.1961 50.8351C24.9983 51.4017 24.9983 52.0184 25.1961 52.5849C25.2891 52.8569 25.4358 53.1074 25.6275 53.3217C25.8208 53.5328 26.0555 53.702 26.3169 53.819C26.6049 53.9411 26.9146 54.0041 27.2276 54.0041C27.5405 54.0041 27.8502 53.9411 28.1382 53.819C28.3996 53.7019 28.6342 53.5327 28.8277 53.3217C29.0193 53.1074 29.166 52.8569 29.259 52.5849C29.3578 52.3057 29.4077 52.0116 29.4065 51.7156V51.7119Z" fill="#F7941D"/>
<path d="M31.9428 53.8705H34.3983V54.3457H31.4082V49.0817H31.9428V53.8705Z" fill="#F7941D"/>
<path d="M36.0575 53.8705H38.513V54.3457H35.5229V49.0817H36.0575V53.8705Z" fill="#F7941D"/>
<path d="M40.1869 53.8705H43.0074V54.3457H39.6523V49.0817H42.9189V49.5569H40.1869V51.3619H42.7383V51.8371H40.1869V53.8705Z" fill="#F7941D"/>
<path d="M48.3571 50.0321C48.1721 49.8382 47.9486 49.6851 47.7008 49.5827C47.4244 49.4719 47.1285 49.418 46.8307 49.4243C46.5174 49.419 46.2067 49.4818 45.9201 49.6085C45.6579 49.7257 45.4231 49.8964 45.2306 50.1095C45.0394 50.3247 44.8917 50.5749 44.7956 50.8462C44.5915 51.4116 44.5915 52.0305 44.7956 52.596C44.8912 52.8675 45.039 53.1178 45.2306 53.3327C45.4239 53.5439 45.6586 53.7132 45.9201 53.83C46.2067 53.9565 46.5174 54.0194 46.8307 54.0142C47.1065 54.0171 47.3816 53.9849 47.6492 53.9184C47.8613 53.8681 48.064 53.7848 48.2502 53.6716V52.0729H47.0225V51.5719H48.7848V53.9479C48.496 54.1221 48.1828 54.2524 47.8557 54.3347C47.5182 54.4193 47.1714 54.4613 46.8234 54.4599C46.4447 54.4649 46.0687 54.3948 45.7173 54.2536C45.3907 54.1227 45.0943 53.9264 44.8464 53.6768C44.5985 53.4272 44.4043 53.1296 44.2757 52.8022C44.1373 52.4504 44.0684 52.0751 44.073 51.6971C44.0696 51.3185 44.1411 50.943 44.2831 50.592C44.4138 50.2653 44.6091 49.9683 44.8575 49.7189C45.1058 49.4695 45.402 49.2728 45.7284 49.1406C46.0794 48.9983 46.4556 48.9281 46.8344 48.9344C47.2117 48.9257 47.5872 48.9895 47.9405 49.1222C48.2413 49.24 48.5148 49.4181 48.7442 49.6453L48.3571 50.0321Z" fill="#F7941D"/>
<path d="M51.0114 53.8705H53.8282V54.3457H50.4731V49.0817H53.7397V49.5569H51.0077V51.3619H53.5591V51.8371H51.0077L51.0114 53.8705Z" fill="#F7941D"/>
<path d="M28.8829 25.4176V25.436C27.0026 23.2073 24.8458 21.4723 22.689 21.4723C21.2585 21.4723 18.9395 22.9126 18.9395 22.9126C22.6263 23.4799 23.3637 28.3277 23.3268 31.7057L34.8852 37.2054C34.9571 37.241 35.0396 37.2491 35.117 37.2281C35.1945 37.207 35.2615 37.1583 35.3055 37.0912L35.652 36.5497C35.7626 36.1224 32.6841 29.7386 28.8829 25.4176Z" fill="url(#paint0_linear_30_1621)"/>
<path d="M42.5836 19.31C32.8392 14.8343 24.0607 30.8179 23.4708 31.573C23.4155 31.643 23.3234 31.643 23.2681 31.6688L38.7529 39.0362C38.7841 39.0537 38.8184 39.0648 38.8539 39.0689C38.8894 39.073 38.9254 39.07 38.9597 39.06C38.994 39.0501 39.026 39.0334 39.0538 39.011C39.0816 38.9886 39.1046 38.9608 39.1216 38.9294C39.446 38.3621 40.3346 36.8113 40.8839 36.0082C44.5855 30.5748 48.3535 27.462 53.8285 25.5539C53.8779 25.5372 53.9214 25.5065 53.9537 25.4656C53.986 25.4246 54.0057 25.3752 54.0103 25.3233C54.015 25.2714 54.0045 25.2193 53.9801 25.1732C53.9557 25.1272 53.9184 25.0892 53.8728 25.0639C51.8929 24.0178 45.098 20.463 42.5836 19.31Z" fill="url(#paint1_linear_30_1621)"/>
<defs>
<linearGradient id="paint0_linear_30_1621" x1="19.7174" y1="22.1354" x2="34.9827" y2="37.4138" gradientUnits="userSpaceOnUse">
<stop stop-color="#F1626C"/>
<stop offset="0.11" stop-color="#EF5F6B"/>
<stop offset="0.2" stop-color="#E75567"/>
<stop offset="0.28" stop-color="#D94560"/>
<stop offset="0.35" stop-color="#C72E57"/>
<stop offset="0.41" stop-color="#AF114B"/>
<stop offset="0.45" stop-color="#A10044"/>
</linearGradient>
<linearGradient id="paint1_linear_30_1621" x1="40.3862" y1="18.6285" x2="36.849" y2="38.6947" gradientUnits="userSpaceOnUse">
<stop offset="0.02" stop-color="#F7941D"/>
<stop offset="0.38" stop-color="#F7901D"/>
<stop offset="0.7" stop-color="#F5851F"/>
<stop offset="0.89" stop-color="#F47B20"/>
</linearGradient>
</defs>
</svg>
