<svg width="14" height="14" viewBox="0 0 14 14" fill="none" xmlns="http://www.w3.org/2000/svg">
<path d="M5.84123 1.29055L4.66623 3.64055C4.50789 3.96555 4.08289 4.27388 3.72456 4.34055L1.59956 4.69055C0.241227 4.91555 -0.0754395 5.89888 0.899561 6.88221L2.55789 8.54055C2.83289 8.81555 2.99123 9.35721 2.89956 9.74888L2.42456 11.7989C2.04956 13.4155 2.91623 14.0489 4.34123 13.1989L6.33289 12.0155C6.69123 11.7989 7.29123 11.7989 7.64956 12.0155L9.64123 13.1989C11.0662 14.0405 11.9329 13.4155 11.5579 11.7989L11.0829 9.74888C11.0079 9.34888 11.1662 8.80721 11.4412 8.53221L13.0996 6.87388C14.0746 5.89888 13.7579 4.91555 12.3996 4.68221L10.2746 4.33221C9.91623 4.27388 9.49123 3.95721 9.33289 3.63221L8.15789 1.28221C7.51623 0.0155461 6.48289 0.0155463 5.84123 1.29055Z" fill="#3D195B"/>
</svg>
