<svg width="18" height="16" viewBox="0 0 18 16" fill="none" xmlns="http://www.w3.org/2000/svg">
<path d="M8.5996 2.74111L8.99996 3.27624L9.40031 2.74111C10.1521 1.73632 11.3565 1.08325 12.7 1.08325C14.9798 1.08325 16.8333 2.94039 16.8333 5.24159C16.8333 6.17887 16.6838 7.04367 16.4242 7.846L16.4232 7.84926C15.8007 9.8193 14.5239 11.41 13.1418 12.5978C11.7575 13.7875 10.2962 14.5482 9.35557 14.8682L9.35556 14.8682L9.35021 14.8701C9.27871 14.8953 9.15171 14.9166 8.99996 14.9166C8.84821 14.9166 8.72121 14.8953 8.6497 14.8701L8.64971 14.8701L8.64435 14.8682C7.70372 14.5482 6.24246 13.7875 4.85815 12.5978C3.47603 11.41 2.19925 9.8193 1.57672 7.84926L1.57673 7.84926L1.57568 7.84601C1.3161 7.04367 1.16663 6.17887 1.16663 5.24159C1.16663 2.94039 3.0201 1.08325 5.29996 1.08325C6.64339 1.08325 7.84787 1.73632 8.5996 2.74111Z" fill="#FBFBFB" stroke="#858585"/>
</svg>
